<svg width="16" height="16" viewBox="0 0 16 16" fill="none" xmlns="http://www.w3.org/2000/svg">
  <path class="link" d="M6 10L10 6" stroke="#3b3b3b" stroke-linecap="round" stroke-linejoin="round" />
  <path class="link"
    d="M7.33331 4.00004L7.64198 3.64271C8.26718 3.01759 9.11511 2.66644 9.99922 2.6665C10.8833 2.66657 11.7312 3.01784 12.3563 3.64304C12.9814 4.26824 13.3326 5.11617 13.3325 6.00028C13.3325 6.88439 12.9812 7.73226 12.356 8.35737L12 8.66671"
    stroke="#3b3b3b" stroke-linecap="round" stroke-linejoin="round" />
  <path class="link"
    d="M8.66666 12L8.40199 12.356C7.76949 12.9815 6.91585 13.3323 6.02633 13.3323C5.1368 13.3323 4.28316 12.9815 3.65066 12.356C3.3389 12.0478 3.09139 11.6807 2.92247 11.2761C2.75354 10.8716 2.66656 10.4375 2.66656 9.99904C2.66656 9.56061 2.75354 9.12653 2.92247 8.72195C3.09139 8.31736 3.3389 7.95031 3.65066 7.64204L3.99999 7.33337"
    stroke="#3b3b3b" stroke-linecap="round" stroke-linejoin="round" />
</svg>